<svg xmlns="http://www.w3.org/2000/svg" version="1.1" width="890" height="270">
	<defs>
		<style type="text/css">
			text { font-family: sans-serif; font-size: 14px; color: #333; }
			text.value { text-anchor: middle; }
			text.unit { text-anchor: middle; font-size: 12px; }
			text.label { text-anchor: middle; font-size: 10px; }
			text.legend {}
		</style>
	</defs>
	<g transform="translate(10, 10)">
		<g>
			<rect x="0" y="0" width="870" height="1" fill="#ccc"></rect>
			<rect x="0" y="40" width="870" height="1" fill="#ccc"></rect>
			<rect x="0" y="80" width="870" height="1" fill="#ccc"></rect>
			<rect x="0" y="120" width="870" height="1" fill="#ccc"></rect>
			<rect x="0" y="160" width="870" height="1" fill="#ccc"></rect>
			<rect x="0" y="200" width="870" height="1" fill="black"></rect>
		</g>
		<g id="records" transform="translate(10, 0)">
			<rect x="0" y="198" width="40" height="2" style="fill: #3366cc"></rect>
			<text class="value" x="20" y="178">2.90</text>
			<text class="unit" x="20" y="192">ns</text>
			<text class="label" x="20" y ="220">
				<tspan x="20">null_call_regs</tspan>
			</text>
		</g>
		<g id="records" transform="translate(100, 0)">
			<rect x="0" y="198" width="40" height="2" style="fill: #3366cc"></rect>
			<text class="value" x="20" y="178">3.30</text>
			<text class="unit" x="20" y="192">ns</text>
			<text class="label" x="20" y ="220">
				<tspan x="20">null_call_stack</tspan>
			</text>
		</g>
		<g id="records" transform="translate(190, 0)">
			<rect x="0" y="155" width="40" height="45" style="fill: #3366cc"></rect>
			<text class="value" x="20" y="135">111</text>
			<text class="unit" x="20" y="149">ns</text>
			<text class="label" x="20" y ="220">
				<tspan x="20">getpid_syscall</tspan>
			</text>
		</g>
		<g id="records" transform="translate(280, 0)">
			<rect x="0" y="197" width="40" height="3" style="fill: #3366cc"></rect>
			<text class="value" x="20" y="177">7.30</text>
			<text class="unit" x="20" y="191">ns</text>
			<text class="label" x="20" y ="220">
				<tspan x="20">getpid_vdso</tspan>
			</text>
		</g>
		<g id="records" transform="translate(370, 0)">
			<rect x="0" y="114" width="40" height="86" style="fill: #3366cc"></rect>
			<text class="value" x="20" y="94">213</text>
			<text class="unit" x="20" y="108">ns</text>
			<text class="label" x="20" y ="220">
				<tspan x="20">read_syscall</tspan>
			</text>
		</g>
		<g id="records" transform="translate(460, 0)">
			<rect x="0" y="111" width="40" height="89" style="fill: #3366cc"></rect>
			<text class="value" x="20" y="91">222</text>
			<text class="unit" x="20" y="105">ns</text>
			<text class="label" x="20" y ="220">
				<tspan x="20">read_vdso</tspan>
			</text>
		</g>
		<g id="records" transform="translate(550, 0)">
			<rect x="0" y="188" width="40" height="12" style="fill: #3366cc"></rect>
			<text class="value" x="20" y="168">29.0</text>
			<text class="unit" x="20" y="182">ns</text>
			<text class="label" x="20" y ="220">
				<tspan x="20">read_stdio</tspan>
			</text>
		</g>
		<g id="records" transform="translate(640, 0)">
			<rect x="0" y="131" width="40" height="69" style="fill: #3366cc"></rect>
			<text class="value" x="20" y="111">171</text>
			<text class="unit" x="20" y="125">ns</text>
			<text class="label" x="20" y ="220">
				<tspan x="20">write_syscall</tspan>
			</text>
		</g>
		<g id="records" transform="translate(730, 0)">
			<rect x="0" y="130" width="40" height="70" style="fill: #3366cc"></rect>
			<text class="value" x="20" y="110">174</text>
			<text class="unit" x="20" y="124">ns</text>
			<text class="label" x="20" y ="220">
				<tspan x="20">write_vdso</tspan>
			</text>
		</g>
		<g id="records" transform="translate(820, 0)">
			<rect x="0" y="187" width="40" height="13" style="fill: #3366cc"></rect>
			<text class="value" x="20" y="167">32.0</text>
			<text class="unit" x="20" y="181">ns</text>
			<text class="label" x="20" y ="220">
				<tspan x="20">write_stdio</tspan>
			</text>
		</g>
		
		<g transform="translate(0, 230)">
			<g id="foo0">
				<rect x="0" y="0" width="14" height="14" style="fill: #3366cc"></rect>
				<text class="legend" x="18" y="12">Wallclock time per call</text>
			</g>
		</g>
	</g>
</svg>
