<svg xmlns="http://www.w3.org/2000/svg" version="1.1" width="890" height="270">
	<defs>
		<style type="text/css">
			text { font-family: sans-serif; font-size: 14px; color: #333; }
			text.value { text-anchor: middle; }
			text.unit { text-anchor: middle; font-size: 12px; }
			text.label { text-anchor: middle; font-size: 10px; }
			text.legend {}
		</style>
	</defs>
	<g transform="translate(10, 10)">
		<g>
			<rect x="0" y="0" width="870" height="1" fill="#ccc"></rect>
			<rect x="0" y="40" width="870" height="1" fill="#ccc"></rect>
			<rect x="0" y="80" width="870" height="1" fill="#ccc"></rect>
			<rect x="0" y="120" width="870" height="1" fill="#ccc"></rect>
			<rect x="0" y="160" width="870" height="1" fill="#ccc"></rect>
			<rect x="0" y="200" width="870" height="1" fill="black"></rect>
		</g>
		<g id="records" transform="translate(10, 0)">
			<rect x="0" y="199" width="40" height="1" style="fill: #3366cc"></rect>
			<text class="value" x="20" y="179">2.40</text>
			<text class="unit" x="20" y="193">ns</text>
			<text class="label" x="20" y ="220">
				<tspan x="20">null_call_regs</tspan>
			</text>
		</g>
		<g id="records" transform="translate(100, 0)">
			<rect x="0" y="198" width="40" height="2" style="fill: #3366cc"></rect>
			<text class="value" x="20" y="178">3.40</text>
			<text class="unit" x="20" y="192">ns</text>
			<text class="label" x="20" y ="220">
				<tspan x="20">null_call_stack</tspan>
			</text>
		</g>
		<g id="records" transform="translate(190, 0)">
			<rect x="0" y="167" width="40" height="33" style="fill: #3366cc"></rect>
			<text class="value" x="20" y="147">81.7</text>
			<text class="unit" x="20" y="161">ns</text>
			<text class="label" x="20" y ="220">
				<tspan x="20">getpid_syscall</tspan>
			</text>
		</g>
		<g id="records" transform="translate(280, 0)">
			<rect x="0" y="198" width="40" height="2" style="fill: #3366cc"></rect>
			<text class="value" x="20" y="178">4.80</text>
			<text class="unit" x="20" y="192">ns</text>
			<text class="label" x="20" y ="220">
				<tspan x="20">getpid_vdso</tspan>
			</text>
		</g>
		<g id="records" transform="translate(370, 0)">
			<rect x="0" y="135" width="40" height="65" style="fill: #3366cc"></rect>
			<text class="value" x="20" y="115">161</text>
			<text class="unit" x="20" y="129">ns</text>
			<text class="label" x="20" y ="220">
				<tspan x="20">read_syscall</tspan>
			</text>
		</g>
		<g id="records" transform="translate(460, 0)">
			<rect x="0" y="134" width="40" height="66" style="fill: #3366cc"></rect>
			<text class="value" x="20" y="114">163</text>
			<text class="unit" x="20" y="128">ns</text>
			<text class="label" x="20" y ="220">
				<tspan x="20">read_vdso</tspan>
			</text>
		</g>
		<g id="records" transform="translate(550, 0)">
			<rect x="0" y="192" width="40" height="8" style="fill: #3366cc"></rect>
			<text class="value" x="20" y="172">20.0</text>
			<text class="unit" x="20" y="186">ns</text>
			<text class="label" x="20" y ="220">
				<tspan x="20">read_stdio</tspan>
			</text>
		</g>
		<g id="records" transform="translate(640, 0)">
			<rect x="0" y="148" width="40" height="52" style="fill: #3366cc"></rect>
			<text class="value" x="20" y="128">129</text>
			<text class="unit" x="20" y="142">ns</text>
			<text class="label" x="20" y ="220">
				<tspan x="20">write_syscall</tspan>
			</text>
		</g>
		<g id="records" transform="translate(730, 0)">
			<rect x="0" y="147" width="40" height="53" style="fill: #3366cc"></rect>
			<text class="value" x="20" y="127">131</text>
			<text class="unit" x="20" y="141">ns</text>
			<text class="label" x="20" y ="220">
				<tspan x="20">write_vdso</tspan>
			</text>
		</g>
		<g id="records" transform="translate(820, 0)">
			<rect x="0" y="191" width="40" height="9" style="fill: #3366cc"></rect>
			<text class="value" x="20" y="171">21.0</text>
			<text class="unit" x="20" y="185">ns</text>
			<text class="label" x="20" y ="220">
				<tspan x="20">write_stdio</tspan>
			</text>
		</g>
		
		<g transform="translate(0, 230)">
			<g id="foo0">
				<rect x="0" y="0" width="14" height="14" style="fill: #3366cc"></rect>
				<text class="legend" x="18" y="12">Wallclock time per call</text>
			</g>
		</g>
	</g>
</svg>
