<svg xmlns="http://www.w3.org/2000/svg" version="1.1" width="890" height="270">
	<defs>
		<style type="text/css">
			text { font-family: sans-serif; font-size: 14px; color: #333; }
			text.value { text-anchor: middle; }
			text.unit { text-anchor: middle; font-size: 12px; }
			text.label { text-anchor: middle; font-size: 10px; }
			text.legend {}
		</style>
	</defs>
	<g transform="translate(10, 10)">
		<g>
			<rect x="0" y="0" width="870" height="1" fill="#ccc"></rect>
			<rect x="0" y="40" width="870" height="1" fill="#ccc"></rect>
			<rect x="0" y="80" width="870" height="1" fill="#ccc"></rect>
			<rect x="0" y="120" width="870" height="1" fill="#ccc"></rect>
			<rect x="0" y="160" width="870" height="1" fill="#ccc"></rect>
			<rect x="0" y="200" width="870" height="1" fill="black"></rect>
		</g>
		<g id="records" transform="translate(10, 0)">
			<rect x="0" y="198" width="40" height="2" style="fill: #3366cc"></rect>
			<text class="value" x="20" y="178">2.60</text>
			<text class="unit" x="20" y="192">ns</text>
			<text class="label" x="20" y ="220">
				<tspan x="20">null_call_regs</tspan>
			</text>
		</g>
		<g id="records" transform="translate(100, 0)">
			<rect x="0" y="198" width="40" height="2" style="fill: #3366cc"></rect>
			<text class="value" x="20" y="178">2.60</text>
			<text class="unit" x="20" y="192">ns</text>
			<text class="label" x="20" y ="220">
				<tspan x="20">null_call_stack</tspan>
			</text>
		</g>
		<g id="records" transform="translate(190, 0)">
			<rect x="0" y="181" width="40" height="19" style="fill: #3366cc"></rect>
			<text class="value" x="20" y="161">46.6</text>
			<text class="unit" x="20" y="175">ns</text>
			<text class="label" x="20" y ="220">
				<tspan x="20">getpid_syscall</tspan>
			</text>
		</g>
		<g id="records" transform="translate(280, 0)">
			<rect x="0" y="198" width="40" height="2" style="fill: #3366cc"></rect>
			<text class="value" x="20" y="178">5.00</text>
			<text class="unit" x="20" y="192">ns</text>
			<text class="label" x="20" y ="220">
				<tspan x="20">getpid_vdso</tspan>
			</text>
		</g>
		<g id="records" transform="translate(370, 0)">
			<rect x="0" y="146" width="40" height="54" style="fill: #3366cc"></rect>
			<text class="value" x="20" y="126">135</text>
			<text class="unit" x="20" y="140">ns</text>
			<text class="label" x="20" y ="220">
				<tspan x="20">read_syscall</tspan>
			</text>
		</g>
		<g id="records" transform="translate(460, 0)">
			<rect x="0" y="144" width="40" height="56" style="fill: #3366cc"></rect>
			<text class="value" x="20" y="124">140</text>
			<text class="unit" x="20" y="138">ns</text>
			<text class="label" x="20" y ="220">
				<tspan x="20">read_vdso</tspan>
			</text>
		</g>
		<g id="records" transform="translate(550, 0)">
			<rect x="0" y="190" width="40" height="10" style="fill: #3366cc"></rect>
			<text class="value" x="20" y="170">24.0</text>
			<text class="unit" x="20" y="184">ns</text>
			<text class="label" x="20" y ="220">
				<tspan x="20">read_stdio</tspan>
			</text>
		</g>
		<g id="records" transform="translate(640, 0)">
			<rect x="0" y="160" width="40" height="40" style="fill: #3366cc"></rect>
			<text class="value" x="20" y="140">98.0</text>
			<text class="unit" x="20" y="154">ns</text>
			<text class="label" x="20" y ="220">
				<tspan x="20">write_syscall</tspan>
			</text>
		</g>
		<g id="records" transform="translate(730, 0)">
			<rect x="0" y="158" width="40" height="42" style="fill: #3366cc"></rect>
			<text class="value" x="20" y="138">105</text>
			<text class="unit" x="20" y="152">ns</text>
			<text class="label" x="20" y ="220">
				<tspan x="20">write_vdso</tspan>
			</text>
		</g>
		<g id="records" transform="translate(820, 0)">
			<rect x="0" y="189" width="40" height="11" style="fill: #3366cc"></rect>
			<text class="value" x="20" y="169">27.0</text>
			<text class="unit" x="20" y="183">ns</text>
			<text class="label" x="20" y ="220">
				<tspan x="20">write_stdio</tspan>
			</text>
		</g>
		
		<g transform="translate(0, 230)">
			<g id="foo0">
				<rect x="0" y="0" width="14" height="14" style="fill: #3366cc"></rect>
				<text class="legend" x="18" y="12">Wallclock time per call</text>
			</g>
		</g>
	</g>
</svg>
