<svg xmlns="http://www.w3.org/2000/svg" version="1.1" width="890" height="270">
	<defs>
		<style type="text/css">
			text { font-family: sans-serif; font-size: 14px; color: #333; }
			text.value { text-anchor: middle; }
			text.unit { text-anchor: middle; font-size: 12px; }
			text.label { text-anchor: middle; font-size: 10px; }
			text.legend {}
		</style>
	</defs>
	<g transform="translate(10, 10)">
		<g>
			<rect x="0" y="0" width="870" height="1" fill="#ccc"></rect>
			<rect x="0" y="40" width="870" height="1" fill="#ccc"></rect>
			<rect x="0" y="80" width="870" height="1" fill="#ccc"></rect>
			<rect x="0" y="120" width="870" height="1" fill="#ccc"></rect>
			<rect x="0" y="160" width="870" height="1" fill="#ccc"></rect>
			<rect x="0" y="200" width="870" height="1" fill="black"></rect>
		</g>
		<g id="records" transform="translate(10, 0)">
			<rect x="0" y="198" width="40" height="2" style="fill: #3366cc"></rect>
			<text class="value" x="20" y="178">4.00</text>
			<text class="unit" x="20" y="192">ns</text>
			<text class="label" x="20" y ="220">
				<tspan x="20">null_call_regs</tspan>
			</text>
		</g>
		<g id="records" transform="translate(100, 0)">
			<rect x="0" y="197" width="40" height="3" style="fill: #3366cc"></rect>
			<text class="value" x="20" y="177">5.50</text>
			<text class="unit" x="20" y="191">ns</text>
			<text class="label" x="20" y ="220">
				<tspan x="20">null_call_stack</tspan>
			</text>
		</g>
		<g id="records" transform="translate(190, 0)">
			<rect x="0" y="166" width="40" height="34" style="fill: #3366cc"></rect>
			<text class="value" x="20" y="146">83.4</text>
			<text class="unit" x="20" y="160">ns</text>
			<text class="label" x="20" y ="220">
				<tspan x="20">getpid_syscall</tspan>
			</text>
		</g>
		<g id="records" transform="translate(280, 0)">
			<rect x="0" y="196" width="40" height="4" style="fill: #3366cc"></rect>
			<text class="value" x="20" y="176">9.40</text>
			<text class="unit" x="20" y="190">ns</text>
			<text class="label" x="20" y ="220">
				<tspan x="20">getpid_vdso</tspan>
			</text>
		</g>
		<g id="records" transform="translate(370, 0)">
			<rect x="0" y="100" width="40" height="100" style="fill: #3366cc"></rect>
			<text class="value" x="20" y="80">250</text>
			<text class="unit" x="20" y="94">ns</text>
			<text class="label" x="20" y ="220">
				<tspan x="20">read_syscall</tspan>
			</text>
		</g>
		<g id="records" transform="translate(460, 0)">
			<rect x="0" y="85" width="40" height="115" style="fill: #3366cc"></rect>
			<text class="value" x="20" y="65">286</text>
			<text class="unit" x="20" y="79">ns</text>
			<text class="label" x="20" y ="220">
				<tspan x="20">read_vdso</tspan>
			</text>
		</g>
		<g id="records" transform="translate(550, 0)">
			<rect x="0" y="187" width="40" height="13" style="fill: #3366cc"></rect>
			<text class="value" x="20" y="167">32.0</text>
			<text class="unit" x="20" y="181">ns</text>
			<text class="label" x="20" y ="220">
				<tspan x="20">read_stdio</tspan>
			</text>
		</g>
		<g id="records" transform="translate(640, 0)">
			<rect x="0" y="109" width="40" height="91" style="fill: #3366cc"></rect>
			<text class="value" x="20" y="89">225</text>
			<text class="unit" x="20" y="103">ns</text>
			<text class="label" x="20" y ="220">
				<tspan x="20">write_syscall</tspan>
			</text>
		</g>
		<g id="records" transform="translate(730, 0)">
			<rect x="0" y="119" width="40" height="81" style="fill: #3366cc"></rect>
			<text class="value" x="20" y="99">200</text>
			<text class="unit" x="20" y="113">ns</text>
			<text class="label" x="20" y ="220">
				<tspan x="20">write_vdso</tspan>
			</text>
		</g>
		<g id="records" transform="translate(820, 0)">
			<rect x="0" y="184" width="40" height="16" style="fill: #3366cc"></rect>
			<text class="value" x="20" y="164">40.0</text>
			<text class="unit" x="20" y="178">ns</text>
			<text class="label" x="20" y ="220">
				<tspan x="20">write_stdio</tspan>
			</text>
		</g>
		
		<g transform="translate(0, 230)">
			<g id="foo0">
				<rect x="0" y="0" width="14" height="14" style="fill: #3366cc"></rect>
				<text class="legend" x="18" y="12">Wallclock time per call</text>
			</g>
		</g>
	</g>
</svg>
