<svg xmlns="http://www.w3.org/2000/svg" version="1.1" width="890" height="270">
	<defs>
		<style type="text/css">
			text { font-family: sans-serif; font-size: 14px; color: #333; }
			text.value { text-anchor: middle; }
			text.unit { text-anchor: middle; font-size: 12px; }
			text.label { text-anchor: middle; font-size: 10px; }
			text.legend {}
		</style>
	</defs>
	<g transform="translate(10, 10)">
		<g>
			<rect x="0" y="0" width="870" height="1" fill="#ccc"></rect>
			<rect x="0" y="40" width="870" height="1" fill="#ccc"></rect>
			<rect x="0" y="80" width="870" height="1" fill="#ccc"></rect>
			<rect x="0" y="120" width="870" height="1" fill="#ccc"></rect>
			<rect x="0" y="160" width="870" height="1" fill="#ccc"></rect>
			<rect x="0" y="200" width="870" height="1" fill="black"></rect>
		</g>
		<g id="records" transform="translate(10, 0)">
			<rect x="0" y="199" width="40" height="1" style="fill: #3366cc"></rect>
			<text class="value" x="20" y="179">2.50</text>
			<text class="unit" x="20" y="193">ns</text>
			<text class="label" x="20" y ="220">
				<tspan x="20">null_call_regs</tspan>
			</text>
		</g>
		<g id="records" transform="translate(100, 0)">
			<rect x="0" y="199" width="40" height="1" style="fill: #3366cc"></rect>
			<text class="value" x="20" y="179">2.40</text>
			<text class="unit" x="20" y="193">ns</text>
			<text class="label" x="20" y ="220">
				<tspan x="20">null_call_stack</tspan>
			</text>
		</g>
		<g id="records" transform="translate(190, 0)">
			<rect x="0" y="157" width="40" height="43" style="fill: #3366cc"></rect>
			<text class="value" x="20" y="137">107</text>
			<text class="unit" x="20" y="151">ns</text>
			<text class="label" x="20" y ="220">
				<tspan x="20">getpid_syscall</tspan>
			</text>
		</g>
		<g id="records" transform="translate(280, 0)">
			<rect x="0" y="197" width="40" height="3" style="fill: #3366cc"></rect>
			<text class="value" x="20" y="177">6.00</text>
			<text class="unit" x="20" y="191">ns</text>
			<text class="label" x="20" y ="220">
				<tspan x="20">getpid_vdso</tspan>
			</text>
		</g>
		<g id="records" transform="translate(370, 0)">
			<rect x="0" y="101" width="40" height="99" style="fill: #3366cc"></rect>
			<text class="value" x="20" y="81">246</text>
			<text class="unit" x="20" y="95">ns</text>
			<text class="label" x="20" y ="220">
				<tspan x="20">read_syscall</tspan>
			</text>
		</g>
		<g id="records" transform="translate(460, 0)">
			<rect x="0" y="103" width="40" height="97" style="fill: #3366cc"></rect>
			<text class="value" x="20" y="83">242</text>
			<text class="unit" x="20" y="97">ns</text>
			<text class="label" x="20" y ="220">
				<tspan x="20">read_vdso</tspan>
			</text>
		</g>
		<g id="records" transform="translate(550, 0)">
			<rect x="0" y="192" width="40" height="8" style="fill: #3366cc"></rect>
			<text class="value" x="20" y="172">19.0</text>
			<text class="unit" x="20" y="186">ns</text>
			<text class="label" x="20" y ="220">
				<tspan x="20">read_stdio</tspan>
			</text>
		</g>
		<g id="records" transform="translate(640, 0)">
			<rect x="0" y="126" width="40" height="74" style="fill: #3366cc"></rect>
			<text class="value" x="20" y="106">184</text>
			<text class="unit" x="20" y="120">ns</text>
			<text class="label" x="20" y ="220">
				<tspan x="20">write_syscall</tspan>
			</text>
		</g>
		<g id="records" transform="translate(730, 0)">
			<rect x="0" y="124" width="40" height="76" style="fill: #3366cc"></rect>
			<text class="value" x="20" y="104">190</text>
			<text class="unit" x="20" y="118">ns</text>
			<text class="label" x="20" y ="220">
				<tspan x="20">write_vdso</tspan>
			</text>
		</g>
		<g id="records" transform="translate(820, 0)">
			<rect x="0" y="188" width="40" height="12" style="fill: #3366cc"></rect>
			<text class="value" x="20" y="168">29.0</text>
			<text class="unit" x="20" y="182">ns</text>
			<text class="label" x="20" y ="220">
				<tspan x="20">write_stdio</tspan>
			</text>
		</g>
		
		<g transform="translate(0, 230)">
			<g id="foo0">
				<rect x="0" y="0" width="14" height="14" style="fill: #3366cc"></rect>
				<text class="legend" x="18" y="12">Wallclock time per call</text>
			</g>
		</g>
	</g>
</svg>
