<svg xmlns="http://www.w3.org/2000/svg" version="1.1" width="1190" height="338">
	<defs>
		<style type="text/css">
			text { font-family: sans-serif; font-size: 14px; color: #333; }
			text.value { text-anchor: middle; }
			text.unit { text-anchor: middle; font-size: 12px; }
			text.label { text-anchor: middle; font-size: 10px; }
			text.legend {}
		</style>
	</defs>
	<g transform="translate(10, 10)">
		<g>
			<rect x="0" y="0" width="1170" height="1" fill="#ccc"></rect>
			<rect x="0" y="40" width="1170" height="1" fill="#ccc"></rect>
			<rect x="0" y="80" width="1170" height="1" fill="#ccc"></rect>
			<rect x="0" y="120" width="1170" height="1" fill="#ccc"></rect>
			<rect x="0" y="160" width="1170" height="1" fill="#ccc"></rect>
			<rect x="0" y="200" width="1170" height="1" fill="black"></rect>
		</g>
		<g id="records" transform="translate(10, 0)">
			<rect x="0" y="195" width="20" height="5" style="fill: #3366cc"></rect>
			<text class="value" x="10" y="175">7.0</text>
			<text class="unit" x="10" y="189">ns</text>
			<rect x="25" y="53" width="20" height="147" style="fill: #4e9a06"></rect>
			<text class="value" x="35" y="33">220</text>
			<text class="unit" x="35" y="47">ns</text>
			<rect x="50" y="194" width="20" height="6" style="fill: #dc3912"></rect>
			<text class="value" x="60" y="174">8.7</text>
			<text class="unit" x="60" y="188">ns</text>
			<text class="label" x="35" y ="220">
				<tspan x="35">Intel</tspan>
				<tspan x="35" dy="1.2em">Celeron D 341</tspan>
				<tspan x="35" dy="1.2em">2004 Q2</tspan>
			</text>
		</g>
		<g id="records" transform="translate(100, 0)">
			<rect x="0" y="195" width="20" height="5" style="fill: #3366cc"></rect>
			<text class="value" x="10" y="175">6.1</text>
			<text class="unit" x="10" y="189">ns</text>
			<rect x="25" y="50" width="20" height="150" style="fill: #4e9a06"></rect>
			<text class="value" x="35" y="30">224</text>
			<text class="unit" x="35" y="44">ns</text>
			<rect x="50" y="195" width="20" height="5" style="fill: #dc3912"></rect>
			<text class="value" x="60" y="175">7.1</text>
			<text class="unit" x="60" y="189">ns</text>
			<text class="label" x="35" y ="220">
				<tspan x="35">Intel</tspan>
				<tspan x="35" dy="1.2em">Pentium 4 660</tspan>
				<tspan x="35" dy="1.2em">2005 Q1</tspan>
			</text>
		</g>
		<g id="records" transform="translate(190, 0)">
			<rect x="0" y="196" width="20" height="4" style="fill: #3366cc"></rect>
			<text class="value" x="10" y="176">5.5</text>
			<text class="unit" x="10" y="190">ns</text>
			<rect x="25" y="144" width="20" height="56" style="fill: #4e9a06"></rect>
			<text class="value" x="35" y="124">83</text>
			<text class="unit" x="35" y="138">ns</text>
			<rect x="50" y="193" width="20" height="7" style="fill: #dc3912"></rect>
			<text class="value" x="60" y="173">9.4</text>
			<text class="unit" x="60" y="187">ns</text>
			<text class="label" x="35" y ="220">
				<tspan x="35">AMD</tspan>
				<tspan x="35" dy="1.2em">Athlon 64 X2 4200+</tspan>
				<tspan x="35" dy="1.2em">2005 Q2</tspan>
			</text>
		</g>
		<g id="records" transform="translate(280, 0)">
			<rect x="0" y="196" width="20" height="4" style="fill: #3366cc"></rect>
			<text class="value" x="10" y="176">5.4</text>
			<text class="unit" x="10" y="190">ns</text>
			<rect x="25" y="51" width="20" height="149" style="fill: #4e9a06"></rect>
			<text class="value" x="35" y="31">223</text>
			<text class="unit" x="35" y="45">ns</text>
			<rect x="50" y="195" width="20" height="5" style="fill: #dc3912"></rect>
			<text class="value" x="60" y="175">7.1</text>
			<text class="unit" x="60" y="189">ns</text>
			<text class="label" x="35" y ="220">
				<tspan x="35">Intel</tspan>
				<tspan x="35" dy="1.2em">Pentium D 820</tspan>
				<tspan x="35" dy="1.2em">2005 Q2</tspan>
			</text>
		</g>
		<g id="records" transform="translate(370, 0)">
			<rect x="0" y="198" width="20" height="2" style="fill: #3366cc"></rect>
			<text class="value" x="10" y="178">2.4</text>
			<text class="unit" x="10" y="192">ns</text>
			<rect x="25" y="128" width="20" height="72" style="fill: #4e9a06"></rect>
			<text class="value" x="35" y="108">107</text>
			<text class="unit" x="35" y="122">ns</text>
			<rect x="50" y="196" width="20" height="4" style="fill: #dc3912"></rect>
			<text class="value" x="60" y="176">6.0</text>
			<text class="unit" x="60" y="190">ns</text>
			<text class="label" x="35" y ="220">
				<tspan x="35">Intel</tspan>
				<tspan x="35" dy="1.2em">Core 2 Duo E8400</tspan>
				<tspan x="35" dy="1.2em">2008 Q1</tspan>
			</text>
		</g>
		<g id="records" transform="translate(460, 0)">
			<rect x="0" y="198" width="20" height="2" style="fill: #3366cc"></rect>
			<text class="value" x="10" y="178">3.0</text>
			<text class="unit" x="10" y="192">ns</text>
			<rect x="25" y="133" width="20" height="67" style="fill: #4e9a06"></rect>
			<text class="value" x="35" y="113">99</text>
			<text class="unit" x="35" y="127">ns</text>
			<rect x="50" y="195" width="20" height="5" style="fill: #dc3912"></rect>
			<text class="value" x="60" y="175">6.7</text>
			<text class="unit" x="60" y="189">ns</text>
			<text class="label" x="35" y ="220">
				<tspan x="35">Intel</tspan>
				<tspan x="35" dy="1.2em">Core 2 Duo T6600</tspan>
				<tspan x="35" dy="1.2em">2009 Q1</tspan>
			</text>
		</g>
		<g id="records" transform="translate(550, 0)">
			<rect x="0" y="197" width="20" height="3" style="fill: #3366cc"></rect>
			<text class="value" x="10" y="177">3.6</text>
			<text class="unit" x="10" y="191">ns</text>
			<rect x="25" y="169" width="20" height="31" style="fill: #4e9a06"></rect>
			<text class="value" x="35" y="149">45</text>
			<text class="unit" x="35" y="163">ns</text>
			<rect x="50" y="196" width="20" height="4" style="fill: #dc3912"></rect>
			<text class="value" x="60" y="176">5.3</text>
			<text class="unit" x="60" y="190">ns</text>
			<text class="label" x="35" y ="220">
				<tspan x="35">AMD</tspan>
				<tspan x="35" dy="1.2em">Phenom II X2 555</tspan>
				<tspan x="35" dy="1.2em">2010 Q1</tspan>
			</text>
		</g>
		<g id="records" transform="translate(640, 0)">
			<rect x="0" y="198" width="20" height="2" style="fill: #3366cc"></rect>
			<text class="value" x="10" y="178">2.6</text>
			<text class="unit" x="10" y="192">ns</text>
			<rect x="25" y="168" width="20" height="32" style="fill: #4e9a06"></rect>
			<text class="value" x="35" y="148">47</text>
			<text class="unit" x="35" y="162">ns</text>
			<rect x="50" y="196" width="20" height="4" style="fill: #dc3912"></rect>
			<text class="value" x="60" y="176">5.0</text>
			<text class="unit" x="60" y="190">ns</text>
			<text class="label" x="35" y ="220">
				<tspan x="35">Intel</tspan>
				<tspan x="35" dy="1.2em">Xeon X5675</tspan>
				<tspan x="35" dy="1.2em">2011 Q1</tspan>
			</text>
		</g>
		<g id="records" transform="translate(730, 0)">
			<rect x="0" y="197" width="20" height="3" style="fill: #3366cc"></rect>
			<text class="value" x="10" y="177">3.3</text>
			<text class="unit" x="10" y="191">ns</text>
			<rect x="25" y="126" width="20" height="74" style="fill: #4e9a06"></rect>
			<text class="value" x="35" y="106">111</text>
			<text class="unit" x="35" y="120">ns</text>
			<rect x="50" y="195" width="20" height="5" style="fill: #dc3912"></rect>
			<text class="value" x="60" y="175">7.3</text>
			<text class="unit" x="60" y="189">ns</text>
			<text class="label" x="35" y ="220">
				<tspan x="35">AMD</tspan>
				<tspan x="35" dy="1.2em">FX-8150</tspan>
				<tspan x="35" dy="1.2em">2011 Q4</tspan>
			</text>
		</g>
		<g id="records" transform="translate(820, 0)">
			<rect x="0" y="198" width="20" height="2" style="fill: #3366cc"></rect>
			<text class="value" x="10" y="178">1.7</text>
			<text class="unit" x="10" y="192">ns</text>
			<rect x="25" y="176" width="20" height="24" style="fill: #4e9a06"></rect>
			<text class="value" x="35" y="156">36</text>
			<text class="unit" x="35" y="170">ns</text>
			<rect x="50" y="198" width="20" height="2" style="fill: #dc3912"></rect>
			<text class="value" x="60" y="178">2.8</text>
			<text class="unit" x="60" y="192">ns</text>
			<text class="label" x="35" y ="220">
				<tspan x="35">Intel</tspan>
				<tspan x="35" dy="1.2em">Core i5-4670K</tspan>
				<tspan x="35" dy="1.2em">2013 Q2</tspan>
			</text>
		</g>
		<g id="records" transform="translate(910, 0)">
			<rect x="0" y="197" width="20" height="3" style="fill: #3366cc"></rect>
			<text class="value" x="10" y="177">3.4</text>
			<text class="unit" x="10" y="191">ns</text>
			<rect x="25" y="145" width="20" height="55" style="fill: #4e9a06"></rect>
			<text class="value" x="35" y="125">82</text>
			<text class="unit" x="35" y="139">ns</text>
			<rect x="50" y="196" width="20" height="4" style="fill: #dc3912"></rect>
			<text class="value" x="60" y="176">4.8</text>
			<text class="unit" x="60" y="190">ns</text>
			<text class="label" x="35" y ="220">
				<tspan x="35">AMD</tspan>
				<tspan x="35" dy="1.2em">A10-7850K</tspan>
				<tspan x="35" dy="1.2em">2014 Q1</tspan>
			</text>
		</g>
		<g id="records" transform="translate(1000, 0)">
			<rect x="0" y="198" width="20" height="2" style="fill: #3366cc"></rect>
			<text class="value" x="10" y="178">1.7</text>
			<text class="unit" x="10" y="192">ns</text>
			<rect x="25" y="178" width="20" height="22" style="fill: #4e9a06"></rect>
			<text class="value" x="35" y="158">32</text>
			<text class="unit" x="35" y="172">ns</text>
			<rect x="50" y="198" width="20" height="2" style="fill: #dc3912"></rect>
			<text class="value" x="60" y="178">2.7</text>
			<text class="unit" x="60" y="192">ns</text>
			<text class="label" x="35" y ="220">
				<tspan x="35">Intel</tspan>
				<tspan x="35" dy="1.2em">Core i7-4790K</tspan>
				<tspan x="35" dy="1.2em">2014 Q2</tspan>
			</text>
		</g>
		<g id="records" transform="translate(1090, 0)">
			<rect x="0" y="198" width="20" height="2" style="fill: #3366cc"></rect>
			<text class="value" x="10" y="178">1.6</text>
			<text class="unit" x="10" y="192">ns</text>
			<rect x="25" y="174" width="20" height="26" style="fill: #4e9a06"></rect>
			<text class="value" x="35" y="154">38</text>
			<text class="unit" x="35" y="168">ns</text>
			<rect x="50" y="198" width="20" height="2" style="fill: #dc3912"></rect>
			<text class="value" x="60" y="178">2.8</text>
			<text class="unit" x="60" y="192">ns</text>
			<text class="label" x="35" y ="220">
				<tspan x="35">Intel</tspan>
				<tspan x="35" dy="1.2em">Core i5-5675C</tspan>
				<tspan x="35" dy="1.2em">2015 Q2</tspan>
			</text>
		</g>
		
		<g transform="translate(0, 258)">
			<g id="foo0">
				<rect x="0" y="0" width="14" height="14" style="fill: #3366cc"></rect>
				<text class="legend" x="18" y="12">Unoptimized C function call without parameters</text>
			</g>
			<g id="foo1">
				<rect x="0" y="20" width="14" height="14" style="fill: #4e9a06"></rect>
				<text class="legend" x="18" y="32">getpid() system call via syscall instruction</text>
			</g>
			<g id="foo2">
				<rect x="0" y="40" width="14" height="14" style="fill: #dc3912"></rect>
				<text class="legend" x="18" y="52">getpid() system call via vDSO</text>
			</g>
		</g>
	</g>
</svg>
